<?xml version="1.0" encoding="UTF-8"?>
<svg xmlns="http://www.w3.org/2000/svg" viewBox="0 0 214.09 367.13">
  <defs>
    <style>
      .cls-1 {
        fill: none;
        stroke-width: 2.71px;
      }

      .cls-1, .cls-2 {
        stroke: #fff;
        stroke-miterlimit: 10;
      }

      .cls-3, .cls-4, .cls-5, .cls-6, .cls-7 {
        stroke-width: 0px;
      }

      .cls-3, .cls-5, .cls-2 {
        fill: #fff;
      }

      .cls-3, .cls-6 {
        mix-blend-mode: multiply;
      }

      .cls-8 {
        isolation: isolate;
      }

      .cls-4 {
        fill: #002b38;
      }

      .cls-6 {
        fill: #bbbdbf;
      }

      .cls-7 {
        fill: #d73633;
      }
    </style>
  </defs>
  <g class="cls-8">
    <g id="Layer_1" data-name="Layer 1">
      <g>
        <path class="cls-4" d="m11.53,0h191.02c6.37,0,11.53,5.17,11.53,11.53v344.07c0,6.37-5.17,11.53-11.53,11.53H11.53c-6.37,0-11.53-5.17-11.53-11.53V11.53C0,5.17,5.17,0,11.53,0Z"/>
        <rect class="cls-2" x="14.42" y="27.63" width="185.26" height="299.63"/>
        <polygon class="cls-3" points="14.42 27.63 14.42 327.25 199.67 327.25 14.42 27.63"/>
        <path class="cls-5" d="m134.08,12.13c0,2.19-1.77,3.96-3.96,3.96h-46.14c-2.19,0-3.96-1.77-3.96-3.96h0c0-2.19,1.77-3.96,3.96-3.96h46.14c2.19,0,3.96,1.77,3.96,3.96h0Z"/>
        <path class="cls-5" d="m136.24,346.23c0,3.58-2.91,6.49-6.49,6.49h-45.41c-3.58,0-6.49-2.9-6.49-6.49h0c0-3.59,2.91-6.49,6.49-6.49h45.41c3.58,0,6.49,2.9,6.49,6.49h0Z"/>
        <g>
          <path class="cls-5" d="m56.59,346.23c0,4.98-4.03,9.01-9.01,9.01s-9.01-4.03-9.01-9.01,4.03-9.01,9.01-9.01,9.01,4.04,9.01,9.01Z"/>
          <path class="cls-5" d="m175.52,346.23c0,4.98-4.03,9.01-9.01,9.01s-9.01-4.03-9.01-9.01,4.03-9.01,9.01-9.01,9.01,4.04,9.01,9.01Z"/>
        </g>
      </g>
      <g>
        <g>
          <path class="cls-7" d="m149.52,109.08c-29.15-5.83-40.06,19.83-41.94,25.01-1.88-5.17-12.79-30.84-41.94-25.01-20.04,4.01-27.24,25.57-22.99,43.61,1.46,6.2,3.66,13.05,6.64,18.69,0,0,22.41,42.45,58.29,60.77,35.88-18.32,58.29-60.77,58.29-60.77,2.98-5.64,5.18-12.49,6.64-18.69,4.25-18.04-2.95-39.6-22.99-43.61Z"/>
          <path class="cls-6" d="m157.26,111.79c3.68,6.3,5.8,13.14,6.23,20.47,1.21,20.83-5.98,45.86-24.38,57.73-13.06,8.42-29.42,8.88-42.7.74-6.9-4.22-15.98-11.57-20.11-18.64-4.91-8.42-10.67-22.85-10.06-32.79.51-8.27,5.28-20.88,11.93-26.28,1.72-1.39,3.54-2.5,5.45-3.4-5.03-1.51-10.97-1.93-17.98-.53-20.04,4.01-27.24,25.57-22.99,43.61,1.46,6.2,3.66,13.05,6.64,18.69,0,0,22.41,42.45,58.29,60.77,35.88-18.32,58.29-60.77,58.29-60.77,2.98-5.64,5.18-12.49,6.64-18.69,3.65-15.48-1.15-33.55-15.25-40.89Z"/>
        </g>
        <polyline class="cls-1" points="39.68 161.71 93.01 161.71 98.51 188.45 106.63 143.67 113.35 207.17 126 160.37 188.68 160.37"/>
      </g>
    </g>
  </g>
</svg>