<svg width="152" height="152" viewBox="0 0 152 152" fill="none" xmlns="http://www.w3.org/2000/svg">
<path d="M71.9558 71.1503C72.268 71.1483 72.5802 71.1463 72.9018 71.1443C73.5587 71.1413 74.2155 71.1399 74.8724 71.14C75.86 71.1387 76.8472 71.1279 77.8347 71.1166C83.5582 71.0861 88.3955 71.9335 93.5152 74.5156C93.8328 74.6744 94.1505 74.8333 94.4777 74.9969C96.8661 76.2903 98.7154 77.9654 100.64 79.8594C100.893 80.1074 101.145 80.3553 101.406 80.6108C106.65 85.9571 108.845 92.4658 109.843 99.75C109.915 100.245 109.986 100.74 110.059 101.235C110.21 102.275 110.357 103.316 110.503 104.358C110.7 105.752 110.905 107.145 111.114 108.537C111.282 109.664 111.449 110.792 111.615 111.92C111.695 112.459 111.775 112.999 111.856 113.539C113.048 121.526 113.048 121.526 111.625 123.5C106.091 129.419 95.201 130.569 87.5777 131.219C87.2817 131.245 86.9858 131.271 86.6809 131.298C83.1779 131.57 79.6783 131.575 76.1665 131.571C75.8493 131.571 75.532 131.571 75.2052 131.571C70.694 131.564 66.2274 131.524 61.7496 130.922C61.4516 130.884 61.1537 130.845 60.8468 130.806C53.9943 129.901 45.1617 128.594 40.2076 123.277C38.4617 120.545 39.7127 116.383 40.1565 113.355C40.227 112.865 40.2974 112.374 40.3677 111.884C40.5149 110.859 40.6638 109.835 40.8139 108.812C41.0043 107.512 41.1901 106.213 41.3747 104.913C41.519 103.9 41.6658 102.888 41.8134 101.876C41.8828 101.397 41.9514 100.919 42.0192 100.44C43.135 92.5902 45.4729 85.982 51.0621 80.1562C51.2576 79.9454 51.4532 79.7345 51.6546 79.5173C56.866 74.0542 64.4953 71.1672 71.9558 71.1503Z" fill="#25BB7F"/>
<path d="M91.4375 25.8281C95.8844 29.66 99.3625 35.2649 99.8152 41.2343C100.102 48.8817 98.6443 54.9893 93.5156 60.8594C88.9017 65.713 82.6323 68.219 76 68.3926C69.3673 68.219 63.4468 65.6999 58.678 61.0739C53.5687 55.6666 52.042 49.4854 52.1595 42.2769C52.3441 37.0305 54.6534 32.0548 58.1875 28.2031C58.3846 27.9789 58.5817 27.7546 58.7847 27.5236C67.2507 18.416 81.9837 18.2072 91.4375 25.8281Z" fill="#25BB7F"/>
<path d="M132.314 75.755C133.287 76.4748 134.189 77.2588 135.078 78.0781C135.265 78.2411 135.452 78.4042 135.644 78.5721C140.645 83.1867 142.389 89.7053 143.613 96.1504C143.713 96.6694 143.713 96.6694 143.814 97.1989C144.708 102.09 144.708 102.09 143.522 104.202C140.097 108.963 133.425 110.925 127.916 111.885C127.138 112.009 126.36 112.116 125.578 112.219C125.147 112.277 125.147 112.277 124.707 112.336C122.335 112.6 119.946 112.543 117.562 112.516C117.401 111.52 117.24 110.524 117.08 109.528C117.028 109.206 116.976 108.883 116.922 108.551C116.622 106.686 116.333 104.82 116.061 102.951C115.914 101.938 115.764 100.925 115.614 99.9125C115.541 99.4159 115.469 98.9192 115.399 98.4222C114.79 94.109 113.941 89.8086 111.996 85.8711C111.896 85.664 111.795 85.4568 111.692 85.2434C110.078 82.0087 107.867 79.2429 105.504 76.5276C104.942 75.8723 104.412 75.2144 103.906 74.5156C112.87 69.5905 123.868 69.8784 132.314 75.755Z" fill="#25BB7F"/>
<path d="M48.0933 74.5156C47.9305 74.7048 47.9305 74.7048 47.7643 74.8978C47.2793 75.4623 46.7954 76.0278 46.3121 76.5937C46.1675 76.7628 46.023 76.9319 45.8741 77.1062C39.2242 84.9594 37.2563 93.3731 35.8658 103.387C35.7081 104.507 35.5496 105.628 35.3906 106.748C35.2926 107.441 35.1954 108.133 35.0992 108.826C35.0555 109.137 35.0118 109.449 34.9668 109.77C34.9289 110.043 34.8909 110.316 34.8518 110.597C34.7465 111.25 34.6092 111.878 34.4371 112.516C25.7846 112.728 15.9985 111.48 9.39983 105.329C8.33688 104.184 7.71791 103.19 7.71875 101.59C8.43754 93.2953 10.0993 85.6282 15.7339 79.2656C15.8981 79.0766 16.0623 78.8875 16.2314 78.6927C24.2152 70.0948 38.1716 68.7527 48.0933 74.5156Z" fill="#25BB7F"/>
<path d="M127.088 35.894C131.134 38.8013 133.621 42.6923 134.596 47.5383C135.363 52.2897 134.299 57.1298 131.535 61.0878C129.998 63.0908 128.301 64.5601 126.172 65.9062C125.984 66.0276 125.797 66.1489 125.604 66.2739C121.544 68.59 116.58 68.7961 112.164 67.6384C108.55 66.598 105.098 64.3519 103.016 61.1562C103.041 59.8742 103.704 58.83 104.277 57.7051C106.328 53.5127 107.23 48.9539 107.228 44.3086C107.228 44.0185 107.228 43.7285 107.229 43.4296C107.217 41.6814 107.118 40.034 106.679 38.3328C106.551 37.5353 106.627 36.9868 106.875 36.2187C111.871 31.2894 121.772 32.5841 127.088 35.894Z" fill="#25BB7F"/>
<path d="M34.6787 33.1201C35.1074 33.1235 35.1074 33.1235 35.5447 33.1269C38.8897 33.204 42.466 34.0621 45.125 36.2188C45.4916 37.2534 45.413 37.9761 45.1435 39.0205C43.8015 45.9065 45.2314 53.1408 48.5205 59.2637C49.0358 60.3768 49.0616 60.6226 48.6875 61.75C45.7883 65.6219 41.4459 67.5332 36.8125 68.2813C32.1432 68.8055 27.4342 67.3169 23.7129 64.5147C19.6771 61.1378 17.698 56.7057 17.1039 51.5507C16.9379 46.9434 18.4794 42.5576 21.5049 39.0947C21.951 38.6257 22.402 38.1613 22.8594 37.7031C23.027 37.5321 23.1946 37.361 23.3673 37.1848C26.3998 34.3372 30.6027 33.0749 34.6787 33.1201Z" fill="#25BB7F"/>
</svg>
