<?xml version="1.0" encoding="UTF-8"?>
<svg xmlns="http://www.w3.org/2000/svg" xmlns:xlink="http://www.w3.org/1999/xlink" viewBox="0 0 1371.41 367.13">
  <defs>
    <style>
      .cls-1 {
        fill: url(#linear-gradient-12);
      }

      .cls-1, .cls-2, .cls-3, .cls-4, .cls-5, .cls-6, .cls-7, .cls-8, .cls-9, .cls-10, .cls-11, .cls-12, .cls-13, .cls-14, .cls-15, .cls-16, .cls-17, .cls-18 {
        stroke-width: 0px;
      }

      .cls-2 {
        mix-blend-mode: multiply;
      }

      .cls-2, .cls-8 {
        fill: #64cfaa;
      }

      .cls-3 {
        fill: url(#linear-gradient-9);
      }

      .cls-3, .cls-11, .cls-15 {
        fill-rule: evenodd;
      }

      .cls-4 {
        fill: url(#linear-gradient-6);
      }

      .cls-19 {
        fill: #20a577;
        stroke: #fff;
        stroke-miterlimit: 10;
      }

      .cls-20 {
        isolation: isolate;
      }

      .cls-6 {
        fill: url(#linear-gradient-11);
      }

      .cls-7 {
        fill: #c1f3d5;
      }

      .cls-9 {
        fill: #002b38;
      }

      .cls-21 {
        font-family: OpenSauceSans-Bold, 'Open Sauce Sans';
        font-size: 24px;
        font-weight: 700;
      }

      .cls-21, .cls-10 {
        fill: #fff;
      }

      .cls-11 {
        fill: url(#linear-gradient);
      }

      .cls-12 {
        fill: url(#linear-gradient-2);
      }

      .cls-13 {
        fill: url(#linear-gradient-7);
      }

      .cls-14 {
        fill: url(#linear-gradient-3);
      }

      .cls-15 {
        fill: url(#linear-gradient-5);
      }

      .cls-16 {
        fill: url(#linear-gradient-8);
      }

      .cls-17 {
        fill: url(#linear-gradient-10);
      }

      .cls-18 {
        fill: url(#linear-gradient-4);
      }
    </style>
    <linearGradient id="linear-gradient" x1="709.69" y1="1676.43" x2="696.43" y2="1752.8" gradientTransform="translate(564 1856.27) scale(1 -1)" gradientUnits="userSpaceOnUse">
      <stop offset="0" stop-color="#25bb7f"/>
      <stop offset="1" stop-color="#c4f4d6"/>
    </linearGradient>
    <linearGradient id="linear-gradient-2" x1="708.72" y1="1676.26" x2="695.46" y2="1752.63" xlink:href="#linear-gradient"/>
    <linearGradient id="linear-gradient-3" x1="695.83" y1="1674.02" x2="682.57" y2="1750.39" gradientTransform="translate(564 1856.27) scale(1 -1)" gradientUnits="userSpaceOnUse">
      <stop offset="0" stop-color="#25bb7f"/>
      <stop offset="1" stop-color="#64cfaa"/>
    </linearGradient>
    <linearGradient id="linear-gradient-4" x1="707.65" y1="1676.07" x2="694.4" y2="1752.45" xlink:href="#linear-gradient-3"/>
    <linearGradient id="linear-gradient-5" x1="-22.97" y1="1696.3" x2="-34.59" y2="1763.24" xlink:href="#linear-gradient"/>
    <linearGradient id="linear-gradient-6" x1="-23.82" y1="1696.15" x2="-35.45" y2="1763.09" xlink:href="#linear-gradient"/>
    <linearGradient id="linear-gradient-7" x1="-35.12" y1="1694.19" x2="-46.74" y2="1761.13" xlink:href="#linear-gradient-3"/>
    <linearGradient id="linear-gradient-8" x1="-24.76" y1="1695.99" x2="-36.38" y2="1762.93" xlink:href="#linear-gradient-3"/>
    <linearGradient id="linear-gradient-9" x1="-384.5" y1="1606.54" x2="-396.12" y2="1673.48" xlink:href="#linear-gradient"/>
    <linearGradient id="linear-gradient-10" x1="-385.35" y1="1606.39" x2="-396.97" y2="1673.33" xlink:href="#linear-gradient"/>
    <linearGradient id="linear-gradient-11" x1="-396.65" y1="1604.43" x2="-408.27" y2="1671.37" xlink:href="#linear-gradient-3"/>
    <linearGradient id="linear-gradient-12" x1="-386.28" y1="1606.23" x2="-397.9" y2="1673.17" xlink:href="#linear-gradient-3"/>
  </defs>
  <g class="cls-20">
    <g id="Layer_1" data-name="Layer 1">
      <g>
        <path class="cls-9" d="m1168.86,0h191.02c6.37,0,11.53,5.17,11.53,11.53v344.07c0,6.37-5.17,11.53-11.53,11.53h-191.02c-6.37,0-11.53-5.17-11.53-11.53V11.53c0-6.37,5.17-11.53,11.53-11.53Z"/>
        <rect class="cls-19" x="1171.74" y="27.63" width="185.26" height="299.63"/>
        <polygon class="cls-2" points="1171.74 27.63 1171.74 327.25 1356.99 327.25 1171.74 27.63"/>
        <path class="cls-10" d="m1291.4,12.13c0,2.19-1.77,3.96-3.96,3.96h-46.14c-2.19,0-3.96-1.77-3.96-3.96h0c0-2.19,1.77-3.96,3.96-3.96h46.14c2.19,0,3.96,1.77,3.96,3.96h0Z"/>
        <path class="cls-10" d="m1293.56,346.23c0,3.58-2.91,6.49-6.49,6.49h-45.41c-3.58,0-6.49-2.9-6.49-6.49h0c0-3.59,2.91-6.49,6.49-6.49h45.41c3.58,0,6.49,2.9,6.49,6.49h0Z"/>
        <g>
          <path class="cls-10" d="m1213.91,346.23c0,4.98-4.03,9.01-9.01,9.01s-9.01-4.03-9.01-9.01,4.03-9.01,9.01-9.01,9.01,4.04,9.01,9.01Z"/>
          <path class="cls-10" d="m1332.84,346.23c0,4.98-4.03,9.01-9.01,9.01s-9.01-4.03-9.01-9.01,4.03-9.01,9.01-9.01,9.01,4.04,9.01,9.01Z"/>
        </g>
      </g>
      <text class="cls-21" transform="translate(1213.97 240.76)"><tspan x="0" y="0">HeyCow</tspan></text>
      <g>
        <rect class="cls-10" x="1204" y="96.13" width="121" height="109.43" rx="25.55" ry="25.55"/>
        <path class="cls-7" d="m1249.54,127.32c-.38,1.41-3.61,2.25-3.61,2.25,0,0-7.01-1.61-10.24-4.54-3.23-2.93-5.32-11.44-5.32-11.44,0,0,5.17,4.63,8.67,6.46,3.69,1.93,15.48,3.37,15.48,3.37,0,0-4.5,2.17-4.97,3.91Z"/>
        <path class="cls-7" d="m1278.81,127.32c.38,1.41,3.61,2.25,3.61,2.25,0,0,7.01-1.61,10.24-4.54,3.23-2.93,5.32-11.44,5.32-11.44,0,0-5.17,4.63-8.67,6.46-3.69,1.93-15.48,3.37-15.48,3.37,0,0,4.5,2.17,4.97,3.91Z"/>
        <path class="cls-11" d="m1308.38,125.95c-6.56-3.57-12.37-4.47-17.28-2.67-3.53,1.29-5.79,3.71-7.09,5.59-1.87-1.72-5.08-4.05-9.87-5.5,0,0-5.84-1.7-9.61-1.7-3.76,0-9.64,1.7-9.64,1.7-4.78,1.46-8,3.79-9.87,5.5-1.31-1.88-3.56-4.3-7.09-5.59-4.91-1.79-10.72-.89-17.28,2.67l-1.93,1.05,1.23,1.82c4.13,6.09,8.81,9.38,13.9,9.76.33.03.66.04.98.04,3.59,0,6.58-1.47,8.58-2.83l7.55,32.53c-1.88,2.48-2.99,5.28-2.99,7.87,0,8.92,12.46,8.92,16.56,8.92s16.55,0,16.55-8.92c0-2.54-1.09-5.35-2.99-7.87l7.54-32.53c2,1.36,4.99,2.83,8.58,2.83.32,0,.65-.01.98-.04,5.09-.38,9.76-3.66,13.89-9.76l1.23-1.82-1.93-1.05Zm-74.27,8.65c-3.31-.26-6.5-2.33-9.52-6.17,4.62-2.13,8.62-2.61,11.92-1.42,3,1.08,4.78,3.36,5.64,4.76-1.49,1.2-4.47,3.12-8.04,2.84Zm30.4,46.52c-12.57,0-12.57-3.71-12.57-4.93,0-4.36,5.63-11.05,12.57-11.05s12.57,6.68,12.57,11.05c0,1.22,0,4.93-12.57,4.93Zm30.4-46.52c-3.56.28-6.55-1.64-8.04-2.84.85-1.4,2.64-3.68,5.64-4.76,3.3-1.19,7.3-.71,11.92,1.42-3.02,3.84-6.21,5.91-9.52,6.17Zm-12.82-1.95l.02-.06c-1.78-1.9-7.21-6.6-17.6-6.6-3.19,0-5.91.45-8.21,1.12l-9.5,5.69,4.93,21.27,2.52,10.88c2.85-2.27,6.43-3.78,10.25-3.78s7.21,1.33,10.26,3.77l7.45-32.13-.13-.14Z"/>
        <path class="cls-12" d="m1282.12,132.58l-.02.06.13.14-7.45,32.13c-3.05-2.44-6.63-3.77-10.26-3.77-3.82,0-7.4,1.52-10.25,3.78l-2.52-10.88-4.93-21.27,9.5-5.69c2.29-.67,5.01-1.12,8.21-1.12,10.39,0,15.83,4.7,17.6,6.6Z"/>
        <path class="cls-14" d="m1256.73,170.86c-.87.87-.87,2.27,0,3.14.87.87,2.27.87,3.14,0,.87-.87.3-1.71-.56-2.57-.87-.87-1.71-1.43-2.58-.56Z"/>
        <path class="cls-18" d="m1269.24,171.43c-.87.87-1.43,1.71-.56,2.57s2.27.87,3.14,0,.87-2.27,0-3.14c-.87-.87-1.71-.3-2.57.56Z"/>
      </g>
      <g>
        <path class="cls-5" d="m698,48.67h-330.57c-1.35,0-2.44,1.09-2.44,2.44v176.03c0,1.35,1.09,2.44,2.44,2.44h330.57c1.35,0,2.44-1.09,2.44-2.44V51.11c0-1.35-1.09-2.44-2.44-2.44Zm-2.44,176.03h-325.69V53.56h325.69v171.14Z"/>
        <path class="cls-5" d="m708.07,27.13h-350.72c-7.67,0-13.91,6.24-13.91,13.91v230.81c0,7.67,6.24,13.91,13.91,13.91h139.07l-2.85,18.75c-1.62,10.64-6.46,20.31-14,27.99l-2.94,2.99c-1.8,1.83-2.3,4.44-1.31,6.81.99,2.37,3.21,3.84,5.78,3.84h103.3c2.57,0,4.78-1.47,5.78-3.84.99-2.37.49-4.98-1.31-6.81l-2.94-2.99c-7.54-7.67-12.38-17.35-14-27.99l-2.85-18.75h138.98c7.67,0,13.91-6.24,13.91-13.91V41.04c0-7.67-6.24-13.91-13.91-13.91Zm-134.99,296.07c2.48,4.62,5.62,8.89,9.37,12.71l2.94,2.99c.58.59.39,1.24.29,1.5s-.44.85-1.27.85h-103.3c-.83,0-1.16-.59-1.27-.85-.11-.25-.29-.91.29-1.5l2.94-2.99c3.75-3.82,6.89-8.09,9.37-12.71h80.65Zm-2.32-4.89h-76.01c1.73-4.16,2.96-8.54,3.65-13.08l2.96-19.48h62.78l2.96,19.48c.69,4.54,1.92,8.93,3.65,13.08Zm146.33-46.47c0,4.97-4.05,9.02-9.02,9.02h-350.72c-4.97,0-9.02-4.05-9.02-9.02v-20.87h368.76v20.87Zm0-25.75h-368.76V41.04c0-4.97,4.05-9.02,9.02-9.02h350.72c4.97,0,9.02,4.05,9.02,9.02v205.06Z"/>
        <circle class="cls-5" cx="532.83" cy="265.83" r="6.2"/>
      </g>
      <g>
        <path class="cls-5" d="m285.99,141.01H51.36c-1.35,0-2.44,1.09-2.44,2.44v158.2c0,1.35,1.09,2.44,2.44,2.44h234.63c1.35,0,2.44-1.09,2.44-2.44v-158.2c0-1.35-1.09-2.44-2.44-2.44Zm-2.44,158.2H53.8v-153.32h229.74v153.32Z"/>
        <path class="cls-5" d="m334.9,314.5h-31.18v-174.87c0-7.67-6.24-13.91-13.91-13.91H47.53c-7.67,0-13.91,6.24-13.91,13.91v174.87H2.44c-1.35,0-2.44,1.09-2.44,2.44v14.9c0,7.67,6.24,13.91,13.91,13.91h309.53c7.67,0,13.91-6.24,13.91-13.91v-14.9c0-1.35-1.09-2.44-2.44-2.44ZM38.51,139.63c0-4.97,4.05-9.02,9.02-9.02h242.27c4.97,0,9.02,4.05,9.02,9.02v174.87H38.51v-174.87Zm158.28,179.75v4.82c0,1.81-1.48,3.29-3.29,3.29h-49.68c-1.81,0-3.29-1.48-3.29-3.29v-4.82h56.26Zm135.66,12.46c0,4.97-4.05,9.02-9.02,9.02H13.91c-4.97,0-9.02-4.05-9.02-9.02v-12.46h130.77v4.82c0,4.51,3.67,8.18,8.18,8.18h49.68c4.51,0,8.18-3.67,8.18-8.18v-4.82h130.77v12.46Z"/>
        <circle class="cls-5" cx="168.57" cy="135.82" r="2.53"/>
      </g>
      <rect class="cls-8" x="370" y="53.13" width="326" height="172"/>
      <rect class="cls-19" x="53.5" y="145.63" width="230" height="154"/>
      <g>
        <rect class="cls-10" x="479.95" y="86.6" width="106.05" height="95.91" rx="22.39" ry="22.39"/>
        <path class="cls-7" d="m519.86,113.93c-.33,1.24-3.17,1.97-3.17,1.97,0,0-6.15-1.41-8.98-3.98-2.83-2.57-4.67-10.03-4.67-10.03,0,0,4.53,4.06,7.6,5.66,3.24,1.69,13.57,2.95,13.57,2.95,0,0-3.95,1.9-4.36,3.42Z"/>
        <path class="cls-7" d="m545.52,113.93c.33,1.24,3.17,1.97,3.17,1.97,0,0,6.15-1.41,8.98-3.98,2.83-2.57,4.67-10.03,4.67-10.03,0,0-4.53,4.06-7.6,5.66-3.24,1.69-13.57,2.95-13.57,2.95,0,0,3.95,1.9,4.36,3.42Z"/>
        <path class="cls-15" d="m571.44,112.73c-5.75-3.13-10.85-3.92-15.15-2.34-3.09,1.13-5.07,3.25-6.22,4.9-1.64-1.5-4.46-3.55-8.65-4.82,0,0-5.12-1.49-8.42-1.49-3.29,0-8.45,1.49-8.45,1.49-4.19,1.28-7.01,3.32-8.65,4.82-1.14-1.65-3.12-3.77-6.22-4.9-4.3-1.57-9.4-.78-15.15,2.34l-1.69.92,1.08,1.59c3.62,5.34,7.72,8.22,12.18,8.55.29.02.58.03.86.03,3.15,0,5.77-1.29,7.52-2.48l6.61,28.51c-1.64,2.17-2.62,4.63-2.62,6.9,0,7.82,10.92,7.82,14.51,7.82s14.51,0,14.51-7.82c0-2.23-.96-4.69-2.62-6.9l6.61-28.51c1.75,1.19,4.37,2.48,7.52,2.48.28,0,.57-.01.86-.03,4.46-.33,8.56-3.21,12.18-8.55l1.08-1.59-1.69-.92Zm-65.09,7.58c-2.9-.23-5.7-2.05-8.34-5.41,4.05-1.87,7.55-2.29,10.44-1.25,2.63.95,4.19,2.94,4.94,4.17-1.3,1.05-3.92,2.73-7.04,2.49Zm26.65,40.78c-11.02,0-11.02-3.26-11.02-4.32,0-3.82,4.93-9.68,11.02-9.68s11.02,5.86,11.02,9.68c0,1.07,0,4.32-11.02,4.32Zm26.65-40.78c-3.12.25-5.74-1.44-7.04-2.49.75-1.23,2.31-3.22,4.94-4.17,2.89-1.04,6.4-.62,10.45,1.25-2.64,3.36-5.44,5.18-8.34,5.41Zm-11.24-1.71l.02-.05c-1.56-1.67-6.32-5.79-15.43-5.79-2.8,0-5.18.39-7.19.98l-8.33,4.99,4.32,18.64,2.21,9.54c2.5-1.99,5.64-3.32,8.98-3.32s6.32,1.16,8.99,3.3l6.53-28.16-.11-.12Z"/>
        <path class="cls-4" d="m548.42,118.55l-.02.05.11.12-6.53,28.16c-2.67-2.14-5.81-3.3-8.99-3.3-3.35,0-6.49,1.33-8.98,3.32l-2.21-9.54-4.32-18.64,8.33-4.99c2.01-.59,4.4-.98,7.19-.98,9.11,0,13.87,4.12,15.43,5.79Z"/>
        <path class="cls-13" d="m526.16,152.1c-.76.76-.76,1.99,0,2.75.76.76,1.99.76,2.75,0,.76-.76.27-1.5-.49-2.26-.76-.76-1.5-1.25-2.26-.49Z"/>
        <path class="cls-16" d="m537.13,152.6c-.76.76-1.25,1.5-.49,2.26s1.99.76,2.75,0,.76-1.99,0-2.75c-.76-.76-1.5-.27-2.26.49Z"/>
      </g>
      <rect class="cls-10" x="118.42" y="176.36" width="106.05" height="95.91" rx="22.39" ry="22.39"/>
      <path class="cls-7" d="m158.34,203.69c-.33,1.24-3.17,1.97-3.17,1.97,0,0-6.15-1.41-8.98-3.98-2.83-2.57-4.67-10.03-4.67-10.03,0,0,4.53,4.06,7.6,5.66,3.24,1.69,13.57,2.95,13.57,2.95,0,0-3.95,1.9-4.36,3.42Z"/>
      <path class="cls-7" d="m183.99,203.69c.33,1.24,3.17,1.97,3.17,1.97,0,0,6.15-1.41,8.98-3.98,2.83-2.57,4.67-10.03,4.67-10.03,0,0-4.53,4.06-7.6,5.66-3.24,1.69-13.57,2.95-13.57,2.95,0,0,3.95,1.9,4.36,3.42Z"/>
      <path class="cls-3" d="m209.91,202.49c-5.75-3.13-10.85-3.92-15.15-2.34-3.09,1.13-5.07,3.25-6.22,4.9-1.64-1.5-4.46-3.55-8.65-4.82,0,0-5.12-1.49-8.42-1.49-3.29,0-8.45,1.49-8.45,1.49-4.19,1.28-7.01,3.32-8.65,4.82-1.14-1.65-3.12-3.77-6.22-4.9-4.3-1.57-9.4-.78-15.15,2.34l-1.69.92,1.08,1.59c3.62,5.34,7.72,8.22,12.18,8.55.29.02.58.03.86.03,3.15,0,5.77-1.29,7.52-2.48l6.61,28.51c-1.64,2.17-2.62,4.63-2.62,6.9,0,7.82,10.92,7.82,14.51,7.82s14.51,0,14.51-7.82c0-2.23-.96-4.69-2.62-6.9l6.61-28.51c1.75,1.19,4.37,2.48,7.52,2.48.28,0,.57-.01.86-.03,4.46-.33,8.56-3.21,12.18-8.55l1.08-1.59-1.69-.92Zm-65.09,7.58c-2.9-.23-5.7-2.05-8.34-5.41,4.05-1.87,7.55-2.29,10.44-1.25,2.63.95,4.19,2.94,4.94,4.17-1.3,1.05-3.92,2.73-7.04,2.49Zm26.65,40.78c-11.02,0-11.02-3.26-11.02-4.32,0-3.82,4.93-9.68,11.02-9.68s11.02,5.86,11.02,9.68c0,1.07,0,4.32-11.02,4.32Zm26.65-40.78c-3.12.25-5.74-1.44-7.04-2.49.75-1.23,2.31-3.22,4.94-4.17,2.89-1.04,6.4-.62,10.45,1.25-2.64,3.36-5.44,5.18-8.34,5.41Zm-11.24-1.71l.02-.05c-1.56-1.67-6.32-5.79-15.43-5.79-2.8,0-5.18.39-7.19.98l-8.33,4.99,4.32,18.64,2.21,9.54c2.5-1.99,5.64-3.32,8.98-3.32s6.32,1.16,8.99,3.3l6.53-28.16-.11-.12Z"/>
      <path class="cls-17" d="m186.89,208.31l-.02.05.11.12-6.53,28.16c-2.67-2.14-5.81-3.3-8.99-3.3-3.35,0-6.49,1.33-8.98,3.32l-2.21-9.54-4.32-18.64,8.33-4.99c2.01-.59,4.4-.98,7.19-.98,9.11,0,13.87,4.12,15.43,5.79Z"/>
      <path class="cls-6" d="m164.64,241.86c-.76.76-.76,1.99,0,2.75.76.76,1.99.76,2.75,0,.76-.76.27-1.5-.49-2.26-.76-.76-1.5-1.25-2.26-.49Z"/>
      <path class="cls-1" d="m175.6,242.35c-.76.76-1.25,1.5-.49,2.26s1.99.76,2.75,0,.76-1.99,0-2.75c-.76-.76-1.5-.27-2.26.49Z"/>
    </g>
  </g>
</svg>