<svg width="247" height="113" viewBox="0 0 247 113" fill="none" xmlns="http://www.w3.org/2000/svg">
<path d="M238.8 7.58752H125.706C125.244 7.58752 124.871 7.97149 124.871 8.44704V70.4554C124.871 70.9309 125.244 71.3149 125.706 71.3149H238.8C239.262 71.3149 239.635 70.9309 239.635 70.4554V8.44704C239.635 7.97149 239.262 7.58752 238.8 7.58752ZM237.965 69.5959H126.541V9.31008H237.965V69.5959Z" fill="black"/>
<path d="M242.245 0H122.257C119.633 0 117.498 2.1981 117.498 4.89994V86.2051C117.498 88.9069 119.633 91.105 122.257 91.105H169.835L168.86 97.7099C168.306 101.458 166.65 104.864 164.071 107.57L163.065 108.623C162.449 109.268 162.278 110.187 162.617 111.022C162.955 111.857 163.715 112.375 164.594 112.375H199.935C200.814 112.375 201.57 111.857 201.912 111.022C202.251 110.187 202.08 109.268 201.464 108.623L200.458 107.57C197.879 104.868 196.223 101.458 195.669 97.7099L194.694 91.105H242.241C244.866 91.105 247 88.9069 247 86.2051V4.89994C247 2.1981 244.866 0 242.241 0H242.245ZM196.062 104.294C196.911 105.921 197.985 107.425 199.268 108.771L200.274 109.824C200.472 110.032 200.407 110.261 200.373 110.353C200.339 110.444 200.222 110.652 199.938 110.652H164.598C164.314 110.652 164.201 110.444 164.163 110.353C164.125 110.264 164.064 110.032 164.262 109.824L165.268 108.771C166.551 107.425 167.625 105.921 168.474 104.294H196.066H196.062ZM195.269 102.571H169.264C169.856 101.106 170.277 99.5628 170.513 97.9636L171.525 91.1015H193.004L194.016 97.9636C194.252 99.5628 194.673 101.109 195.265 102.571H195.269ZM245.331 86.2016C245.331 87.9523 243.945 89.379 242.245 89.379H122.257C120.557 89.379 119.171 87.9523 119.171 86.2016V78.8499H245.331V86.2016ZM245.331 77.1309H119.171V4.89994C119.171 3.14921 120.557 1.72255 122.257 1.72255H242.245C243.945 1.72255 245.331 3.14921 245.331 4.89994V77.1344V77.1309Z" fill="black"/>
<path d="M182.292 86.2684C183.464 86.2684 184.413 85.2905 184.413 84.0844C184.413 82.8782 183.464 81.9003 182.292 81.9003C181.121 81.9003 180.171 82.8782 180.171 84.0844C180.171 85.2905 181.121 86.2684 182.292 86.2684Z" fill="black"/>
<path d="M97.8425 40.1152H17.5711C17.1092 40.1152 16.7363 40.4992 16.7363 40.9748V96.7023C16.7363 97.1779 17.1092 97.5618 17.5711 97.5618H97.8425C98.3043 97.5618 98.6772 97.1779 98.6772 96.7023V40.9748C98.6772 40.4992 98.3043 40.1152 97.8425 40.1152ZM97.0077 95.8428H18.4059V41.8343H97.0043V95.8428H97.0077Z" fill="black"/>
<path d="M114.576 101.229H103.908V39.6291C103.908 36.9272 101.774 34.7291 99.1495 34.7291H16.2609C13.6369 34.7291 11.502 36.9272 11.502 39.6291V101.229H0.83477C0.37291 101.229 0 101.613 0 102.088V107.337C0 110.039 2.13482 112.237 4.75888 112.237H110.655C113.279 112.237 115.414 110.039 115.414 107.337V102.088C115.414 101.613 115.041 101.229 114.579 101.229H114.576ZM13.175 39.6291C13.175 37.8783 14.5606 36.4517 16.2609 36.4517H99.1461C100.846 36.4517 102.232 37.8783 102.232 39.6291V101.229H13.175V39.6291ZM67.3256 102.948V104.646C67.3256 105.283 66.8193 105.805 66.2 105.805H49.2036C48.5843 105.805 48.078 105.283 48.078 104.646V102.948H67.3256ZM113.737 107.337C113.737 109.088 112.352 110.514 110.652 110.514H4.75888C3.05854 110.514 1.67296 109.088 1.67296 107.337V102.948H46.4119V104.646C46.4119 106.234 47.6674 107.527 49.2104 107.527H66.2069C67.7498 107.527 69.0054 106.234 69.0054 104.646V102.948H113.744V107.337H113.737Z" fill="black"/>
<path d="M57.6712 39.1782C58.1493 39.1782 58.5368 38.7792 58.5368 38.287C58.5368 37.7948 58.1493 37.3958 57.6712 37.3958C57.1932 37.3958 56.8057 37.7948 56.8057 38.287C56.8057 38.7792 57.1932 39.1782 57.6712 39.1782Z" fill="black"/>
<path d="M239 8.23706H127V70.0156H239V8.23706Z" fill="#64CFAA"/>
<path d="M97 42.2152H18V95.7566H97V42.2152Z" fill="#20A577" stroke="white" stroke-miterlimit="10"/>
<path d="M192.822 20.9486H171.86C167.63 20.9486 164.2 24.4798 164.2 28.8357V46.8468C164.2 51.2027 167.63 54.7339 171.86 54.7339H192.822C197.052 54.7339 200.482 51.2027 200.482 46.8468V28.8357C200.482 24.4798 197.052 20.9486 192.822 20.9486Z" fill="white"/>
<path d="M177.854 30.5759C177.741 31.0127 176.77 31.2699 176.77 31.2699C176.77 31.2699 174.665 30.7732 173.697 29.8679C172.729 28.9626 172.1 26.3347 172.1 26.3347C172.1 26.3347 173.649 27.7649 174.7 28.3285C175.808 28.9238 179.342 29.3677 179.342 29.3677C179.342 29.3677 177.991 30.037 177.851 30.5724L177.854 30.5759Z" fill="#C1F3D5"/>
<path d="M186.634 30.5759C186.747 31.0127 187.718 31.2699 187.718 31.2699C187.718 31.2699 189.822 30.7732 190.79 29.8679C191.759 28.9626 192.388 26.3347 192.388 26.3347C192.388 26.3347 190.838 27.7649 189.788 28.3285C188.68 28.9238 185.146 29.3677 185.146 29.3677C185.146 29.3677 186.497 30.037 186.637 30.5724L186.634 30.5759Z" fill="#C1F3D5"/>
<path fill-rule="evenodd" clip-rule="evenodd" d="M195.5 30.1532C193.533 29.0507 191.788 28.7724 190.317 29.3289C189.26 29.727 188.582 30.4738 188.189 31.055C187.628 30.5266 186.663 29.8045 185.23 29.3571C185.23 29.3571 183.478 28.8323 182.349 28.8323C181.223 28.8323 179.458 29.3571 179.458 29.3571C178.024 29.808 177.06 30.5266 176.499 31.055C176.109 30.4738 175.431 29.727 174.371 29.3289C172.9 28.7759 171.155 29.0542 169.188 30.1532L168.609 30.4773L168.979 31.0374C170.217 32.9185 171.62 33.933 173.146 34.0492C173.245 34.0563 173.344 34.0598 173.44 34.0598C174.518 34.0598 175.414 33.6054 176.013 33.1862L178.274 43.2291C177.713 43.9935 177.378 44.8601 177.378 45.6597C177.378 48.4144 181.114 48.4144 182.342 48.4144C183.57 48.4144 187.306 48.4144 187.306 45.6597C187.306 44.8742 186.978 44.0076 186.41 43.2291L188.671 33.1862C189.27 33.6054 190.166 34.0598 191.244 34.0598C191.34 34.0598 191.439 34.0563 191.538 34.0492C193.064 33.933 194.467 32.9185 195.705 31.0374L196.075 30.4773L195.497 30.1532H195.5ZM173.231 32.8234C172.239 32.7423 171.281 32.1012 170.378 30.9176C171.764 30.2589 172.961 30.111 173.95 30.4773C174.85 30.812 175.383 31.513 175.64 31.9462C175.195 32.3161 174.299 32.9079 173.231 32.8234ZM182.349 47.1885C178.579 47.1885 178.579 46.0402 178.579 45.6668C178.579 44.3211 180.265 42.2569 182.349 42.2569C184.432 42.2569 186.119 44.3211 186.119 45.6668C186.119 46.0437 186.119 47.1885 182.349 47.1885ZM191.466 32.8234C190.399 32.9114 189.503 32.3161 189.058 31.9462C189.314 31.513 189.848 30.812 190.748 30.4773C191.737 30.111 192.937 30.2589 194.323 30.9176C193.42 32.1012 192.462 32.7423 191.47 32.8234H191.466ZM187.621 32.221L187.628 32.2034C187.094 31.6151 185.466 30.1638 182.349 30.1638C181.391 30.1638 180.577 30.3012 179.889 30.509L177.039 32.2668L178.517 38.8329L179.273 42.1935C180.129 41.4925 181.203 41.024 182.345 41.024C183.488 41.024 184.508 41.4326 185.421 42.1864L187.655 32.2668L187.618 32.2245L187.621 32.221Z" fill="url(#paint0_linear_802_38)"/>
<path d="M187.625 32.2034L187.618 32.221L187.656 32.2633L185.422 42.1829C184.508 41.4291 183.434 41.0205 182.346 41.0205C181.2 41.0205 180.126 41.489 179.274 42.19L178.518 38.8294L177.04 32.2633L179.89 30.5055C180.578 30.2977 181.395 30.1603 182.35 30.1603C185.466 30.1603 187.095 31.6116 187.629 32.1999L187.625 32.2034Z" fill="url(#paint1_linear_802_38)"/>
<path d="M180.009 44.0217C179.749 44.2894 179.749 44.7227 180.009 44.9904C180.269 45.2581 180.69 45.2581 180.95 44.9904C181.21 44.7227 181.043 44.462 180.783 44.1943C180.523 43.9266 180.269 43.754 180.009 44.0217Z" fill="url(#paint2_linear_802_38)"/>
<path d="M183.763 44.1979C183.503 44.4656 183.335 44.7262 183.595 44.994C183.855 45.2617 184.276 45.2617 184.536 44.994C184.796 44.7262 184.796 44.293 184.536 44.0253C184.276 43.7575 184.023 43.9301 183.763 44.1979Z" fill="url(#paint3_linear_802_38)"/>
<path d="M64.7218 56.6302H50.2782C47.3631 56.6302 45 59.1054 45 62.1587V74.7836C45 77.8368 47.3631 80.312 50.2782 80.312H64.7218C67.6369 80.312 70 77.8368 70 74.7836V62.1587C70 59.1054 67.6369 56.6302 64.7218 56.6302Z" fill="white"/>
<path d="M53.9726 63.4034C53.8947 63.6768 53.2239 63.8377 53.2239 63.8377C53.2239 63.8377 51.7714 63.5268 51.103 62.9602C50.4346 62.3936 50 60.7488 50 60.7488C50 60.7488 51.0699 61.6439 51.795 61.9967C52.5602 62.3693 55 62.6471 55 62.6471C55 62.6471 54.0671 63.066 53.9702 63.4012L53.9726 63.4034Z" fill="#C1F3D5"/>
<path d="M60.8219 63.4034C60.8843 63.6768 61.4209 63.8377 61.4209 63.8377C61.4209 63.8377 62.5829 63.5268 63.1176 62.9602C63.6523 62.3936 64 60.7488 64 60.7488C64 60.7488 63.1441 61.6439 62.564 61.9967C61.9518 62.3693 60 62.6471 60 62.6471C60 62.6471 60.7463 63.066 60.8238 63.4012L60.8219 63.4034Z" fill="#C1F3D5"/>
<path fill-rule="evenodd" clip-rule="evenodd" d="M66.6024 62.7509C65.2415 61.9392 64.0345 61.7344 63.0168 62.1441C62.2855 62.4371 61.8169 62.9868 61.5447 63.4147C61.1566 63.0257 60.4892 62.4941 59.4975 62.1648C59.4975 62.1648 58.2858 61.7784 57.5047 61.7784C56.7261 61.7784 55.5049 62.1648 55.5049 62.1648C54.5132 62.4967 53.8458 63.0257 53.4576 63.4147C53.1878 62.9868 52.7192 62.4371 51.9855 62.1441C50.9679 61.7369 49.7608 61.9418 48.4 62.7509L48 62.9894L48.2556 63.4017C49.1124 64.7864 50.0827 65.5332 51.1383 65.6188C51.2069 65.624 51.2755 65.6266 51.3418 65.6266C52.0873 65.6266 52.7074 65.2921 53.1216 64.9835L54.686 72.3764C54.2978 72.9391 54.0659 73.577 54.0659 74.1656C54.0659 76.1934 56.6503 76.1934 57.5 76.1934C58.3497 76.1934 60.9341 76.1934 60.9341 74.1656C60.9341 73.5874 60.7069 72.9495 60.314 72.3764L61.8784 64.9835C62.2926 65.2921 62.9127 65.6266 63.6582 65.6266C63.7245 65.6266 63.7931 65.624 63.8617 65.6188C64.9173 65.5332 65.8876 64.7864 66.7444 63.4017L67 62.9894L66.6 62.7509H66.6024ZM51.1974 64.7164C50.5111 64.6568 49.8484 64.1848 49.2236 63.3136C50.1821 62.8286 51.0105 62.7197 51.6944 62.9894C52.3169 63.2358 52.6861 63.7518 52.8636 64.0707C52.5559 64.343 51.9359 64.7786 51.1974 64.7164ZM57.5047 75.291C54.8966 75.291 54.8966 74.4457 54.8966 74.1708C54.8966 73.1803 56.0634 71.6607 57.5047 71.6607C58.9461 71.6607 60.1129 73.1803 60.1129 74.1708C60.1129 74.4483 60.1129 75.291 57.5047 75.291ZM63.812 64.7164C63.0736 64.7812 62.4535 64.343 62.1459 64.0707C62.3234 63.7518 62.6926 63.2358 63.315 62.9894C63.999 62.7197 64.8297 62.8286 65.7882 63.3136C65.1634 64.1848 64.5007 64.6568 63.8144 64.7164H63.812ZM61.1518 64.273L61.1566 64.26C60.7874 63.827 59.6608 62.7586 57.5047 62.7586C56.8421 62.7586 56.2788 62.8598 55.8031 63.0128L53.8316 64.3067L54.854 69.1402L55.3771 71.614C55.9687 71.098 56.7119 70.7531 57.5024 70.7531C58.2929 70.7531 58.9981 71.0539 59.63 71.6088L61.1755 64.3067L61.1495 64.2756L61.1518 64.273Z" fill="url(#paint4_linear_802_38)"/>
<path d="M60.9768 64.3818L60.9716 64.3954L61 64.428L59.3165 72.0693C58.6281 71.4886 57.8186 71.1739 56.9987 71.1739C56.135 71.1739 55.3255 71.5348 54.6835 72.0748L54.1138 69.486L53 64.428L55.1476 63.0739C55.6658 62.9138 56.282 62.808 57.0013 62.808C59.35 62.808 60.5772 63.926 60.9794 64.3791L60.9768 64.3818Z" fill="url(#paint5_linear_802_38)"/>
<defs>
<linearGradient id="paint0_linear_802_38" x1="185.096" y1="46.794" x2="180.889" y2="23.2551" gradientUnits="userSpaceOnUse">
<stop stop-color="#25BB7F"/>
<stop offset="1" stop-color="#C4F4D6"/>
</linearGradient>
<linearGradient id="paint1_linear_802_38" x1="184.806" y1="46.8469" x2="180.595" y2="23.3081" gradientUnits="userSpaceOnUse">
<stop stop-color="#25BB7F"/>
<stop offset="1" stop-color="#C4F4D6"/>
</linearGradient>
<linearGradient id="paint2_linear_802_38" x1="180.94" y1="47.5372" x2="176.733" y2="23.9984" gradientUnits="userSpaceOnUse">
<stop stop-color="#25BB7F"/>
<stop offset="1" stop-color="#64CFAA"/>
</linearGradient>
<linearGradient id="paint3_linear_802_38" x1="184.485" y1="46.9032" x2="180.277" y2="23.3644" gradientUnits="userSpaceOnUse">
<stop stop-color="#25BB7F"/>
<stop offset="1" stop-color="#64CFAA"/>
</linearGradient>
<linearGradient id="paint4_linear_802_38" x1="59.4052" y1="75.0006" x2="56.1231" y2="57.7436" gradientUnits="userSpaceOnUse">
<stop stop-color="#25BB7F"/>
<stop offset="1" stop-color="#C4F4D6"/>
</linearGradient>
<linearGradient id="paint5_linear_802_38" x1="58.8524" y1="75.6621" x2="55.5441" y2="57.5547" gradientUnits="userSpaceOnUse">
<stop stop-color="#25BB7F"/>
<stop offset="1" stop-color="#C4F4D6"/>
</linearGradient>
</defs>
</svg>
