<svg width="93" height="160" viewBox="0 0 93 160" fill="none" xmlns="http://www.w3.org/2000/svg">
<g clip-path="url(#clip0_534_4272)">
<path d="M5.00859 0H87.9871C90.7542 0 92.9957 2.25315 92.9957 5.02492V154.975C92.9957 157.751 90.7498 160 87.9871 160H5.00859C2.24149 160 0 157.747 0 154.975V5.02492C0 2.25315 2.24583 0 5.00859 0Z" fill="#002B38"/>
<path d="M86.74 12.0415H6.26367V142.624H86.74V12.0415Z" fill="#20A577" stroke="white" stroke-miterlimit="10"/>
<g style="mix-blend-mode:multiply">
<path d="M6.26367 12.0415V142.62H86.7357L6.26367 12.0415Z" fill="#64CFAA"/>
</g>
<path d="M58.2442 5.28641C58.2442 6.24084 57.4753 7.01223 56.524 7.01223H36.481C35.5296 7.01223 34.7607 6.24084 34.7607 5.28641C34.7607 4.33198 35.5296 3.56059 36.481 3.56059H56.524C57.4753 3.56059 58.2442 4.33198 58.2442 5.28641Z" fill="white"/>
<path d="M59.1818 150.892C59.1818 152.452 57.9177 153.72 56.3626 153.72H36.6366C35.0815 153.72 33.8174 152.456 33.8174 150.892C33.8174 149.327 35.0815 148.063 36.6366 148.063H56.3626C57.9177 148.063 59.1818 149.327 59.1818 150.892Z" fill="white"/>
<path d="M24.5827 150.892C24.5827 153.062 22.8321 154.818 20.6688 154.818C18.5055 154.818 16.7549 153.062 16.7549 150.892C16.7549 148.721 18.5055 146.965 20.6688 146.965C22.8321 146.965 24.5827 148.726 24.5827 150.892Z" fill="white"/>
<path d="M76.2458 150.892C76.2458 153.062 74.4952 154.818 72.3319 154.818C70.1686 154.818 68.418 153.062 68.418 150.892C68.418 148.721 70.1686 146.965 72.3319 146.965C74.4952 146.965 76.2458 148.726 76.2458 150.892Z" fill="white"/>
<path d="M24.7256 96H22.9976V86.844H24.7256V90.636H28.6496V86.844H30.3776V96H28.6496V92.184H24.7256V96ZM35.0931 96.132C34.4131 96.132 33.8131 95.984 33.2931 95.688C32.7731 95.392 32.3691 94.984 32.0811 94.464C31.8011 93.936 31.6611 93.34 31.6611 92.676C31.6611 92.06 31.7851 91.484 32.0331 90.948C32.2891 90.404 32.6691 89.964 33.1731 89.628C33.6851 89.292 34.3091 89.124 35.0451 89.124C35.6531 89.124 36.2131 89.252 36.7251 89.508C37.2371 89.756 37.6491 90.144 37.9611 90.672C38.2731 91.192 38.4291 91.84 38.4291 92.616V92.964H34.1571C34.1091 92.964 33.9771 92.964 33.7611 92.964C33.5451 92.964 33.3731 92.952 33.2451 92.928L33.1971 93.108C33.2611 93.124 33.3091 93.156 33.3411 93.204C33.3811 93.252 33.4131 93.32 33.4371 93.408C33.5011 93.576 33.5531 93.692 33.5931 93.756C33.7531 94.068 33.9651 94.312 34.2291 94.488C34.5011 94.656 34.8091 94.74 35.1531 94.74C35.5211 94.74 35.8371 94.648 36.1011 94.464C36.3651 94.272 36.5531 94.028 36.6651 93.732H38.3211C38.1051 94.444 37.7251 95.024 37.1811 95.472C36.6371 95.912 35.9411 96.132 35.0931 96.132ZM33.3891 91.932C33.5091 91.86 33.6171 91.812 33.7131 91.788C33.8091 91.764 33.9171 91.752 34.0371 91.752H36.1251C36.2531 91.752 36.3651 91.764 36.4611 91.788C36.5651 91.812 36.6811 91.86 36.8091 91.932L36.9051 91.764C36.8491 91.732 36.8091 91.704 36.7851 91.68C36.7611 91.648 36.7411 91.616 36.7251 91.584C36.7171 91.552 36.7131 91.532 36.7131 91.524C36.6811 91.388 36.6171 91.256 36.5211 91.128C36.3691 90.896 36.1691 90.72 35.9211 90.6C35.6731 90.472 35.3971 90.408 35.0931 90.408C34.7891 90.408 34.5131 90.468 34.2651 90.588C34.0251 90.708 33.8291 90.888 33.6771 91.128C33.5731 91.256 33.5051 91.388 33.4731 91.524C33.4731 91.532 33.4651 91.556 33.4491 91.596C33.4331 91.628 33.4131 91.66 33.3891 91.692C33.3651 91.716 33.3291 91.74 33.2811 91.764L33.3891 91.932ZM39.7209 98.424V97.056H40.4529C40.6929 97.056 40.8729 97.02 40.9929 96.948C41.1209 96.884 41.2289 96.736 41.3169 96.504L41.4969 96.024L39.0129 89.268H40.7649L42.0729 93.36C42.1769 93.664 42.2329 93.944 42.2409 94.2H42.3969C42.4049 93.992 42.4529 93.712 42.5409 93.36L43.7529 89.268H45.4929L42.8769 96.792C42.6689 97.392 42.4129 97.812 42.1089 98.052C41.8129 98.3 41.3889 98.424 40.8369 98.424H39.7209ZM50.574 96.168C49.598 96.168 48.778 95.956 48.114 95.532C47.45 95.1 46.954 94.524 46.626 93.804C46.298 93.084 46.134 92.288 46.134 91.416C46.134 90.544 46.298 89.752 46.626 89.04C46.954 88.32 47.45 87.748 48.114 87.324C48.778 86.892 49.598 86.676 50.574 86.676C51.678 86.676 52.57 86.952 53.25 87.504C53.93 88.056 54.334 88.792 54.462 89.712H52.578C52.498 89.232 52.274 88.864 51.906 88.608C51.538 88.352 51.078 88.224 50.526 88.224C49.702 88.224 49.062 88.516 48.606 89.1C48.158 89.676 47.934 90.448 47.934 91.416C47.934 92.392 48.158 93.172 48.606 93.756C49.062 94.332 49.702 94.62 50.526 94.62C51.086 94.62 51.546 94.488 51.906 94.224C52.266 93.952 52.49 93.552 52.578 93.024H54.462C54.334 93.992 53.93 94.76 53.25 95.328C52.578 95.888 51.686 96.168 50.574 96.168ZM58.7652 96.132C58.0932 96.132 57.4972 95.984 56.9772 95.688C56.4572 95.392 56.0492 94.976 55.7532 94.44C55.4652 93.904 55.3212 93.288 55.3212 92.592C55.3212 91.92 55.4652 91.32 55.7532 90.792C56.0492 90.264 56.4572 89.856 56.9772 89.568C57.4972 89.272 58.0932 89.124 58.7652 89.124C59.4372 89.124 60.0332 89.272 60.5532 89.568C61.0812 89.864 61.4892 90.276 61.7772 90.804C62.0732 91.324 62.2212 91.92 62.2212 92.592C62.2212 93.288 62.0772 93.904 61.7892 94.44C61.5012 94.976 61.0932 95.392 60.5652 95.688C60.0452 95.984 59.4452 96.132 58.7652 96.132ZM58.7652 94.74C59.2932 94.74 59.7212 94.54 60.0492 94.14C60.3772 93.74 60.5412 93.224 60.5412 92.592C60.5412 91.984 60.3772 91.488 60.0492 91.104C59.7212 90.712 59.2932 90.516 58.7652 90.516C58.4212 90.516 58.1132 90.604 57.8412 90.78C57.5692 90.956 57.3572 91.204 57.2052 91.524C57.0532 91.836 56.9772 92.192 56.9772 92.592C56.9772 93.232 57.1412 93.752 57.4692 94.152C57.8052 94.544 58.2372 94.74 58.7652 94.74ZM64.9254 96L62.8734 89.268H64.6014L65.5734 92.916C65.6454 93.18 65.6814 93.5 65.6814 93.876H65.8374C65.8454 93.652 65.8574 93.472 65.8734 93.336C65.8894 93.2 65.9174 93.06 65.9574 92.916L67.0374 89.268H68.4414L69.5214 92.916C69.5934 93.164 69.6374 93.484 69.6534 93.876H69.7974C69.8134 93.492 69.8534 93.172 69.9174 92.916L70.9134 89.268H72.6294L70.5414 96H69.0174L67.9854 92.34C67.8974 91.972 67.8414 91.628 67.8174 91.308H67.6734C67.6574 91.516 67.6374 91.688 67.6134 91.824C67.5974 91.96 67.5654 92.132 67.5174 92.34L66.4614 96H64.9254Z" fill="white"/>
<path d="M57.521 42H35.1698C30.6578 42 27 45.6697 27 50.1965V68.9088C27 73.4356 30.6578 77.1053 35.1698 77.1053H57.521C62.0331 77.1053 65.6908 73.4356 65.6908 68.9088V50.1965C65.6908 45.6697 62.0331 42 57.521 42Z" fill="white"/>
<path d="M41.5614 52.0058C41.4399 52.4581 40.4071 52.7276 40.4071 52.7276C40.4071 52.7276 38.1656 52.2111 37.1328 51.2712C36.0999 50.3312 35.4316 47.6012 35.4316 47.6012C35.4316 47.6012 37.0848 49.0865 38.2039 49.6736C39.3839 50.2927 43.1538 50.7547 43.1538 50.7547C43.1538 50.7547 41.7149 51.4508 41.5646 52.009L41.5614 52.0058Z" fill="#C1F3D5"/>
<path d="M50.9215 52.0058C51.043 52.4581 52.0758 52.7276 52.0758 52.7276C52.0758 52.7276 54.3173 52.2111 55.3502 51.2712C56.383 50.3312 57.0513 47.6012 57.0513 47.6012C57.0513 47.6012 55.3981 49.0865 54.279 49.6736C53.0991 50.2927 49.3291 50.7547 49.3291 50.7547C49.3291 50.7547 50.768 51.4508 50.9183 52.009L50.9215 52.0058Z" fill="#C1F3D5"/>
<path fill-rule="evenodd" clip-rule="evenodd" d="M60.3766 51.5663C58.279 50.4211 56.4212 50.1323 54.8512 50.7098C53.7224 51.1236 52.9998 51.8999 52.5841 52.5031C51.9861 51.9513 50.9597 51.2038 49.4281 50.7386C49.4281 50.7386 47.5607 50.1933 46.3552 50.1933C45.1529 50.1933 43.2727 50.7386 43.2727 50.7386C41.7443 51.207 40.7146 51.9545 40.1167 52.5031C39.6978 51.8999 38.9783 51.1236 37.8496 50.7098C36.2796 50.1355 34.4218 50.4243 32.3242 51.5663L31.707 51.9032L32.1003 52.487C33.4209 54.4407 34.9174 55.4961 36.545 55.618C36.6505 55.6277 36.756 55.6309 36.8583 55.6309C38.0063 55.6309 38.9624 55.1593 39.6019 54.723L42.0161 65.1587C41.4149 65.9543 41.06 66.8525 41.06 67.6834C41.06 70.5449 45.0442 70.5449 46.3552 70.5449C47.6662 70.5449 51.6472 70.5449 51.6472 67.6834C51.6472 66.8685 51.2987 65.9671 50.6911 65.1587L53.1021 54.723C53.7416 55.1593 54.6977 55.6309 55.8456 55.6309C55.948 55.6309 56.0535 55.6277 56.159 55.618C57.7866 55.4961 59.2798 54.4439 60.6004 52.487L60.9937 51.9032L60.3766 51.5663ZM36.6281 54.3412C35.5697 54.2578 34.5497 53.5938 33.584 52.3619C35.0613 51.6786 36.3403 51.5246 37.3955 51.9064C38.3548 52.2528 38.924 52.9843 39.199 53.4334C38.7225 53.8183 37.7697 54.4343 36.6281 54.3445V54.3412ZM46.3488 69.2649C42.3294 69.2649 42.3294 68.0747 42.3294 67.6834C42.3294 66.2847 44.1297 64.1385 46.3488 64.1385C48.5679 64.1385 50.3682 66.2815 50.3682 67.6834C50.3682 68.0747 50.3682 69.2649 46.3488 69.2649ZM56.0695 54.3412C54.9311 54.4311 53.975 53.8151 53.4986 53.4302C53.7704 52.981 54.3428 52.2496 55.302 51.9032C56.3572 51.5214 57.6363 51.6754 59.1136 52.3587C58.1479 53.5906 57.1279 54.2546 56.0695 54.338V54.3412ZM51.9701 53.7157L51.9765 53.6964C51.4074 53.0869 49.6711 51.5791 46.3488 51.5791C45.3288 51.5791 44.459 51.7235 43.7236 51.9384L40.6859 53.7638L42.2623 60.5872L43.0681 64.0776C43.9794 63.3493 45.1241 62.8649 46.3456 62.8649C47.5671 62.8649 48.6511 63.2916 49.6263 64.0744L52.0085 53.767L51.967 53.7221L51.9701 53.7157Z" fill="url(#paint0_linear_534_4272)"/>
<path d="M51.9789 53.6932L51.9725 53.7125L52.0141 53.7574L49.6319 64.0647C48.6566 63.282 47.5119 62.8553 46.3511 62.8553C45.1297 62.8553 43.9849 63.3429 43.0736 64.0679L42.2678 60.5776L40.6914 53.7542L43.7291 51.9288C44.4614 51.7139 45.3311 51.5695 46.3543 51.5695C49.6766 51.5695 51.4161 53.0773 51.9821 53.6868L51.9789 53.6932Z" fill="url(#paint1_linear_534_4272)"/>
<path d="M43.861 65.9735C43.5828 66.2526 43.5828 66.7017 43.861 66.9808C44.1392 67.2599 44.5868 67.2599 44.865 66.9808C45.1432 66.7017 44.961 66.4322 44.686 66.1563C44.4078 65.8772 44.1392 65.6976 43.861 65.9767V65.9735Z" fill="url(#paint2_linear_534_4272)"/>
<path d="M47.8605 66.1563C47.5823 66.4354 47.4032 66.7049 47.6814 66.9808C47.9596 67.2567 48.4073 67.2599 48.6855 66.9808C48.9636 66.7017 48.9636 66.2526 48.6855 65.9735C48.4073 65.6944 48.1387 65.8772 47.8637 66.1531L47.8605 66.1563Z" fill="url(#paint3_linear_534_4272)"/>
</g>
<defs>
<linearGradient id="paint0_linear_534_4272" x1="49.2842" y1="68.8543" x2="45.0173" y2="44.3594" gradientUnits="userSpaceOnUse">
<stop stop-color="#25BB7F"/>
<stop offset="1" stop-color="#C4F4D6"/>
</linearGradient>
<linearGradient id="paint1_linear_534_4272" x1="48.9732" y1="68.9088" x2="44.7063" y2="44.4139" gradientUnits="userSpaceOnUse">
<stop stop-color="#25BB7F"/>
<stop offset="1" stop-color="#C4F4D6"/>
</linearGradient>
<linearGradient id="paint2_linear_534_4272" x1="44.8522" y1="69.6274" x2="40.5853" y2="45.1325" gradientUnits="userSpaceOnUse">
<stop stop-color="#25BB7F"/>
<stop offset="1" stop-color="#64CFAA"/>
</linearGradient>
<linearGradient id="paint3_linear_534_4272" x1="48.6311" y1="68.9698" x2="44.3642" y2="44.4716" gradientUnits="userSpaceOnUse">
<stop stop-color="#25BB7F"/>
<stop offset="1" stop-color="#64CFAA"/>
</linearGradient>
<clipPath id="clip0_534_4272">
<rect width="93" height="160" fill="white"/>
</clipPath>
</defs>
</svg>
