<svg width="84" height="144" viewBox="0 0 84 144" fill="none" xmlns="http://www.w3.org/2000/svg">
<g clip-path="url(#clip0_534_4243)">
<path d="M4.52389 0H79.4722C81.9715 0 83.9961 2.02784 83.9961 4.52243V139.478C83.9961 141.976 81.9676 144 79.4722 144H4.52389C2.02457 144 0 141.972 0 139.478V4.52243C0 2.02784 2.02849 0 4.52389 0Z" fill="#002B38"/>
<path d="M78.3465 10.8374H5.6582V128.362H78.3465V10.8374Z" fill="white" stroke="white" stroke-miterlimit="10"/>
<g style="mix-blend-mode:multiply">
<path d="M5.6582 10.8374V128.358H78.3426L5.6582 10.8374Z" fill="white"/>
</g>
<path d="M52.6074 4.75777C52.6074 5.61675 51.9129 6.311 51.0536 6.311H32.9502C32.091 6.311 31.3965 5.61675 31.3965 4.75777C31.3965 3.89878 32.091 3.20453 32.9502 3.20453H51.0536C51.9129 3.20453 52.6074 3.89878 52.6074 4.75777Z" fill="white"/>
<path d="M53.4547 135.802C53.4547 137.207 52.313 138.348 50.9083 138.348H33.0913C31.6867 138.348 30.5449 137.21 30.5449 135.802C30.5449 134.394 31.6867 133.257 33.0913 133.257H50.9083C52.313 133.257 53.4547 134.394 53.4547 135.802Z" fill="white"/>
<path d="M22.2031 135.802C22.2031 137.756 20.6219 139.336 18.668 139.336C16.714 139.336 15.1328 137.756 15.1328 135.802C15.1328 133.849 16.714 132.268 18.668 132.268C20.6219 132.268 22.2031 133.853 22.2031 135.802Z" fill="white"/>
<path d="M68.8662 135.802C68.8662 137.756 67.285 139.336 65.331 139.336C63.3771 139.336 61.7959 137.756 61.7959 135.802C61.7959 133.849 63.3771 132.268 65.331 132.268C67.285 132.268 68.8662 133.853 68.8662 135.802Z" fill="white"/>
<path d="M15.5684 63.4278H36.4928L38.6508 73.9161L41.8368 56.3519L44.4734 81.2586L49.4367 62.9022H74.0298" stroke="white" stroke-width="2.71" stroke-miterlimit="10"/>
<path d="M55.9583 49.2815C46.2555 47.3647 42.627 55.8034 41.9996 57.5051C41.3721 55.8034 37.7436 47.3647 28.0409 49.2815C21.3728 50.5988 18.9752 57.6885 20.3917 63.6206C20.8783 65.6591 21.6097 67.9127 22.6005 69.7677C22.6005 69.7677 30.0592 83.7273 41.9996 89.7526C53.9399 83.7273 61.3986 69.7677 61.3986 69.7677C62.3894 67.9127 63.1225 65.6591 63.6091 63.6206C65.024 57.6885 62.6263 50.5988 55.9583 49.2815Z" fill="#64CFAA"/>
<g style="mix-blend-mode:multiply">
<path d="M58.5352 50.1736C59.7596 52.2469 60.4671 54.4957 60.608 56.9043C61.0113 63.7536 58.6184 71.9851 52.493 75.8881C48.1474 78.6573 42.7022 78.8075 38.283 76.1333C35.9862 74.7447 32.9643 72.3283 31.5894 70.0035C29.9536 67.236 28.0377 62.4884 28.2393 59.2195C28.4074 56.501 29.9968 52.3528 32.212 50.5784C32.7834 50.1214 33.3916 49.7561 34.0255 49.4588C32.3512 48.9606 30.3729 48.823 28.0409 49.2832C21.3728 50.599 18.9752 57.6887 20.3917 63.6207C20.8783 65.6592 21.6097 67.9128 22.6005 69.7679C22.6005 69.7679 30.0592 83.7274 41.9996 89.7528C53.9399 83.7274 61.3986 69.7679 61.3986 69.7679C62.3894 67.9128 63.1225 65.6592 63.609 63.6207C64.8223 58.53 63.2265 52.5885 58.5336 50.1736H58.5352Z" fill="#64CFAA"/>
</g>
<path d="M20.1875 65.8855H35.8155L37.4269 72.2206L39.8054 61.6139L41.7775 76.6536L45.4827 65.5694H63.8511" stroke="white" stroke-width="2.71" stroke-miterlimit="10"/>
</g>
<defs>
<clipPath id="clip0_534_4243">
<rect width="84" height="144" fill="white"/>
</clipPath>
</defs>
</svg>
