<svg width="273" height="138" viewBox="0 0 273 138" fill="none" xmlns="http://www.w3.org/2000/svg">
<g filter="url(#filter0_d_1403_4500)">
<rect x="24" y="16" width="90" height="90" rx="15" fill="white"/>
<path d="M58.5693 47.0519C58.3333 48.0244 56.3183 48.6029 56.3183 48.6029C56.3183 48.6029 51.9491 47.4972 49.9351 45.4771C47.9247 43.4606 46.6184 37.5969 46.6184 37.5969C46.6184 37.5969 49.8383 40.7839 52.0189 42.0442C54.3192 43.3736 61.6663 44.3623 61.6663 44.3623C61.6663 44.3623 58.8598 45.8543 58.5693 47.0519Z" fill="#C1F3D5"/>
<path d="M76.8087 47.0519C77.0446 48.0244 79.0597 48.6029 79.0597 48.6029C79.0597 48.6029 83.4288 47.4972 85.4429 45.4771C87.4532 43.4606 88.7596 37.5969 88.7596 37.5969C88.7596 37.5969 85.5396 40.7839 83.359 42.0442C81.0587 43.3736 73.7117 44.3623 73.7117 44.3623C73.7117 44.3623 76.5181 45.8543 76.8087 47.0519Z" fill="#C1F3D5"/>
<path fill-rule="evenodd" clip-rule="evenodd" d="M95.2354 46.1144C91.1476 43.6563 87.525 43.0371 84.4681 44.2728C82.2683 45.162 80.8621 46.8273 80.0489 48.1226C78.8837 46.9401 76.8812 45.3364 73.9012 44.3321C73.9012 44.3321 70.2619 43.1614 67.9119 43.1619C65.5696 43.1623 61.9041 44.3321 61.9041 44.3321C58.9242 45.3361 56.9217 46.9401 55.7565 48.1226C54.9433 46.8273 53.537 45.162 51.3373 44.2728C48.2798 43.0368 44.6575 43.6566 40.5697 46.1144L39.3662 46.838L40.1354 48.091C42.7106 52.2877 45.6237 54.5485 48.7936 54.8113C49.0006 54.8286 49.2048 54.8366 49.4061 54.8366C51.6441 54.8366 53.508 53.8241 54.752 52.8907L59.4534 75.2933C58.2842 77.0009 57.5873 78.9323 57.5873 80.7134C57.5873 86.8581 65.3516 86.8581 67.9029 86.8581C70.4543 86.8581 78.2186 86.8581 78.2186 80.7134C78.2186 78.9641 77.5383 77.0286 76.353 75.2925L81.0536 52.8907C82.2976 53.8241 84.1615 54.8366 86.3995 54.8366C86.6005 54.8366 86.8052 54.8284 87.0122 54.8113C90.1819 54.5485 93.095 52.2877 95.6702 48.091L96.4394 46.838L95.2354 46.1144ZM48.9589 52.0715C46.8987 51.8928 44.9079 50.4637 43.0279 47.8194C45.9049 46.3522 48.3981 46.0221 50.4535 46.8399C52.3234 47.5838 53.4337 49.1535 53.9661 50.1177C53.0394 50.9421 51.178 52.2654 48.9589 52.0715ZM67.9024 84.1125C60.0713 84.1125 60.0713 81.5545 60.0713 80.7139C60.0713 77.7097 63.5796 73.1058 67.9024 73.1058C72.2252 73.1058 75.7336 77.7097 75.7336 80.7139C75.7336 81.5545 75.7336 84.1125 67.9024 84.1125ZM86.8462 52.0715C84.6261 52.2651 82.7659 50.9421 81.8387 50.1177C82.3712 49.1535 83.4815 47.5838 85.3513 46.8399C87.407 46.0221 89.9002 46.3522 92.777 47.8194C90.8972 50.4637 88.9061 51.8925 86.8462 52.0715ZM78.8561 50.727L78.871 50.685C77.7641 49.3746 74.3753 46.1369 67.9019 46.1363C65.9136 46.1363 64.2184 46.4431 62.7886 46.9047L56.8683 50.8231L59.9426 65.4724L61.5145 72.966C63.2907 71.4056 65.5228 70.3596 67.9022 70.3596C70.1643 70.3596 72.3949 71.2744 74.2926 72.9547L78.9366 50.8234L78.8561 50.727Z" fill="url(#paint0_linear_1403_4500)"/>
<path d="M78.871 50.685L78.8561 50.727L78.9366 50.8234L74.2926 72.9547C72.3949 71.2744 70.1643 70.3596 67.9022 70.3596C65.5228 70.3596 63.2907 71.4056 61.5145 72.966L59.9426 65.4724L56.8683 50.8231L62.7886 46.9047C64.2184 46.4431 65.9136 46.1363 67.9019 46.1363C74.3753 46.1369 77.7641 49.3746 78.871 50.685Z" fill="url(#paint1_linear_1403_4500)"/>
<path d="M63.0457 77.0459C62.5056 77.6429 62.5056 78.6106 63.0457 79.2076C63.5859 79.8046 64.4616 79.8046 65.0015 79.2076C65.5416 78.6106 65.1903 78.0312 64.6502 77.4342C64.1101 76.8372 63.5859 76.4489 63.0457 77.0459Z" fill="url(#paint2_linear_1403_4500)"/>
<path d="M70.8456 77.4342C70.3055 78.0312 69.9541 78.6106 70.4943 79.2076C71.0344 79.8046 71.9099 79.8046 72.4501 79.2076C72.9902 78.6106 72.9902 77.6429 72.4501 77.0459C71.9102 76.4489 71.3857 76.8372 70.8456 77.4342Z" fill="url(#paint3_linear_1403_4500)"/>
</g>
<path d="M142.7 77.191H138V51.4719H142.7V62.1236H153.374V51.4719H158.074V77.191H153.374V66.4719H142.7V77.191Z" fill="white"/>
<path d="M170.9 77.5618C169.05 77.5618 167.418 77.1461 166.004 76.3146C164.59 75.4831 163.491 74.3371 162.707 72.8764C161.946 71.3933 161.565 69.7191 161.565 67.8539C161.565 66.1236 161.902 64.5056 162.577 63C163.273 61.4719 164.307 60.236 165.678 59.2921C167.07 58.3483 168.768 57.8764 170.769 57.8764C172.423 57.8764 173.946 58.236 175.339 58.9551C176.732 59.6517 177.852 60.7416 178.701 62.2247C179.55 63.6854 179.974 65.5056 179.974 67.6854V68.6629H168.354C168.223 68.6629 167.864 68.6629 167.277 68.6629C166.689 68.6629 166.222 68.6292 165.873 68.5618L165.743 69.0674C165.917 69.1124 166.047 69.2022 166.135 69.3371C166.243 69.4719 166.33 69.6629 166.396 69.9101C166.57 70.382 166.711 70.7079 166.82 70.8876C167.255 71.764 167.832 72.4494 168.55 72.9438C169.29 73.4157 170.128 73.6517 171.063 73.6517C172.064 73.6517 172.924 73.3933 173.642 72.8764C174.36 72.3371 174.871 71.6517 175.176 70.8202H179.68C179.093 72.8202 178.059 74.4494 176.579 75.7079C175.1 76.9438 173.207 77.5618 170.9 77.5618ZM166.265 65.764C166.591 65.5618 166.885 65.427 167.146 65.3596C167.407 65.2921 167.701 65.2584 168.028 65.2584H173.707C174.055 65.2584 174.36 65.2921 174.621 65.3596C174.904 65.427 175.219 65.5618 175.568 65.764L175.829 65.2921C175.676 65.2022 175.568 65.1236 175.502 65.0562C175.437 64.9663 175.383 64.8764 175.339 64.7865C175.317 64.6966 175.306 64.6404 175.306 64.618C175.219 64.236 175.045 63.8652 174.784 63.5056C174.371 62.8539 173.827 62.3595 173.152 62.0225C172.478 61.6629 171.727 61.4831 170.9 61.4831C170.073 61.4831 169.322 61.6517 168.648 61.9888C167.995 62.3258 167.462 62.8315 167.048 63.5056C166.766 63.8652 166.581 64.236 166.494 64.618C166.494 64.6404 166.472 64.7079 166.428 64.8202C166.385 64.9101 166.33 65 166.265 65.0899C166.2 65.1573 166.102 65.2247 165.971 65.2921L166.265 65.764Z" fill="white"/>
<path d="M183.488 84V80.1573H185.479C186.132 80.1573 186.621 80.0562 186.948 79.8539C187.296 79.6742 187.59 79.2584 187.829 78.6067L188.319 77.2584L181.562 58.2809H186.327L189.885 69.7753C190.168 70.6292 190.32 71.4157 190.342 72.1348H190.767C190.788 71.5506 190.919 70.764 191.158 69.7753L194.455 58.2809H199.188L192.072 79.4157C191.506 81.1011 190.81 82.2809 189.983 82.9551C189.178 83.6517 188.025 84 186.523 84H183.488Z" fill="white"/>
<path d="M213.009 77.6629C210.354 77.6629 208.124 77.0674 206.317 75.8764C204.511 74.6629 203.162 73.0449 202.27 71.0225C201.378 69 200.932 66.764 200.932 64.3146C200.932 61.8652 201.378 59.6404 202.27 57.6404C203.162 55.618 204.511 54.0112 206.317 52.8202C208.124 51.6067 210.354 51 213.009 51C216.012 51 218.438 51.7753 220.288 53.3258C222.137 54.8764 223.236 56.9438 223.584 59.5281H218.46C218.242 58.1798 217.633 57.1461 216.632 56.427C215.631 55.7079 214.38 55.3483 212.878 55.3483C210.637 55.3483 208.896 56.1685 207.656 57.809C206.437 59.427 205.828 61.5955 205.828 64.3146C205.828 67.0562 206.437 69.2472 207.656 70.8876C208.896 72.5056 210.637 73.3146 212.878 73.3146C214.401 73.3146 215.653 72.9438 216.632 72.2022C217.611 71.4382 218.22 70.3146 218.46 68.8315H223.584C223.236 71.5506 222.137 73.7079 220.288 75.3034C218.46 76.8764 216.033 77.6629 213.009 77.6629Z" fill="white"/>
<path d="M235.289 77.5618C233.461 77.5618 231.84 77.1461 230.426 76.3146C229.011 75.4831 227.901 74.3146 227.096 72.809C226.313 71.3034 225.921 69.573 225.921 67.618C225.921 65.7303 226.313 64.0449 227.096 62.5618C227.901 61.0787 229.011 59.9326 230.426 59.1236C231.84 58.2921 233.461 57.8764 235.289 57.8764C237.117 57.8764 238.738 58.2921 240.153 59.1236C241.589 59.9551 242.698 61.1124 243.482 62.5955C244.287 64.0562 244.69 65.7303 244.69 67.618C244.69 69.573 244.298 71.3034 243.514 72.809C242.731 74.3146 241.621 75.4831 240.185 76.3146C238.771 77.1461 237.139 77.5618 235.289 77.5618ZM235.289 73.6517C236.725 73.6517 237.889 73.0899 238.782 71.9663C239.674 70.8427 240.12 69.3933 240.12 67.618C240.12 65.9101 239.674 64.5169 238.782 63.4382C237.889 62.3371 236.725 61.7865 235.289 61.7865C234.353 61.7865 233.516 62.0337 232.776 62.5281C232.036 63.0225 231.459 63.7191 231.046 64.618C230.632 65.4944 230.426 66.4944 230.426 67.618C230.426 69.4157 230.872 70.8764 231.764 72C232.678 73.1011 233.853 73.6517 235.289 73.6517Z" fill="white"/>
<path d="M252.045 77.191L246.463 58.2809H251.164L253.807 68.5281C254.003 69.2697 254.101 70.1685 254.101 71.2247H254.526C254.547 70.5955 254.58 70.0899 254.623 69.7079C254.667 69.3258 254.743 68.9326 254.852 68.5281L257.79 58.2809H261.608L264.546 68.5281C264.742 69.2247 264.862 70.1236 264.905 71.2247H265.297C265.34 70.1461 265.449 69.2472 265.623 68.5281L268.332 58.2809H273L267.321 77.191H263.175L260.368 66.9101C260.129 65.8764 259.976 64.9101 259.911 64.0112H259.52C259.476 64.5955 259.422 65.0787 259.356 65.4607C259.313 65.8427 259.226 66.3258 259.095 66.9101L256.223 77.191H252.045Z" fill="white"/>
<defs>
<filter id="filter0_d_1403_4500" x="0" y="0" width="138" height="138" filterUnits="userSpaceOnUse" color-interpolation-filters="sRGB">
<feFlood flood-opacity="0" result="BackgroundImageFix"/>
<feColorMatrix in="SourceAlpha" type="matrix" values="0 0 0 0 0 0 0 0 0 0 0 0 0 0 0 0 0 0 127 0" result="hardAlpha"/>
<feOffset dy="8"/>
<feGaussianBlur stdDeviation="12"/>
<feComposite in2="hardAlpha" operator="out"/>
<feColorMatrix type="matrix" values="0 0 0 0 0.584314 0 0 0 0 0.615686 0 0 0 0 0.647059 0 0 0 0.2 0"/>
<feBlend mode="normal" in2="BackgroundImageFix" result="effect1_dropShadow_1403_4500"/>
<feBlend mode="normal" in="SourceGraphic" in2="effect1_dropShadow_1403_4500" result="shape"/>
</filter>
<linearGradient id="paint0_linear_1403_4500" x1="73.6669" y1="83.2235" x2="63.6384" y2="30.9621" gradientUnits="userSpaceOnUse">
<stop stop-color="#25BB7F"/>
<stop offset="1" stop-color="#C4F4D6"/>
</linearGradient>
<linearGradient id="paint1_linear_1403_4500" x1="73.6669" y1="83.2235" x2="63.6384" y2="30.9621" gradientUnits="userSpaceOnUse">
<stop stop-color="#25BB7F"/>
<stop offset="1" stop-color="#C4F4D6"/>
</linearGradient>
<linearGradient id="paint2_linear_1403_4500" x1="64.9765" y1="84.8865" x2="54.948" y2="32.6253" gradientUnits="userSpaceOnUse">
<stop stop-color="#25BB7F"/>
<stop offset="1" stop-color="#64CFAA"/>
</linearGradient>
<linearGradient id="paint3_linear_1403_4500" x1="72.3493" y1="83.4723" x2="62.3208" y2="31.2109" gradientUnits="userSpaceOnUse">
<stop stop-color="#25BB7F"/>
<stop offset="1" stop-color="#64CFAA"/>
</linearGradient>
</defs>
</svg>
