<svg width="135" height="140" viewBox="0 0 135 140" fill="none" xmlns="http://www.w3.org/2000/svg">
<rect x="23" width="90" height="90" rx="15" fill="white"/>
<path d="M57.5693 31.052C57.3333 32.0245 55.3183 32.603 55.3183 32.603C55.3183 32.603 50.9491 31.4974 48.9351 29.4772C46.9247 27.4607 45.6184 21.5971 45.6184 21.5971C45.6184 21.5971 48.8383 24.784 51.0189 26.0443C53.3192 27.3738 60.6663 28.3624 60.6663 28.3624C60.6663 28.3624 57.8598 29.8544 57.5693 31.052Z" fill="#C1F3D5"/>
<path d="M75.8087 31.052C76.0446 32.0245 78.0597 32.603 78.0597 32.603C78.0597 32.603 82.4288 31.4974 84.4429 29.4772C86.4532 27.4607 87.7596 21.5971 87.7596 21.5971C87.7596 21.5971 84.5396 24.784 82.359 26.0443C80.0587 27.3738 72.7117 28.3624 72.7117 28.3624C72.7117 28.3624 75.5181 29.8544 75.8087 31.052Z" fill="#C1F3D5"/>
<path fill-rule="evenodd" clip-rule="evenodd" d="M94.2354 30.1144C90.1476 27.6563 86.525 27.0371 83.4681 28.2728C81.2683 29.162 79.8621 30.8273 79.0489 32.1226C77.8837 30.9401 75.8812 29.3364 72.9012 28.3321C72.9012 28.3321 69.2619 27.1614 66.9119 27.1619C64.5696 27.1623 60.9041 28.3321 60.9041 28.3321C57.9242 29.3361 55.9217 30.9401 54.7565 32.1226C53.9433 30.8273 52.537 29.162 50.3373 28.2728C47.2798 27.0368 43.6575 27.6566 39.5697 30.1144L38.3662 30.838L39.1354 32.091C41.7106 36.2877 44.6237 38.5485 47.7936 38.8113C48.0006 38.8286 48.2048 38.8366 48.4061 38.8366C50.6441 38.8366 52.508 37.8241 53.752 36.8907L58.4534 59.2933C57.2842 61.0009 56.5873 62.9323 56.5873 64.7134C56.5873 70.8581 64.3516 70.8581 66.9029 70.8581C69.4543 70.8581 77.2186 70.8581 77.2186 64.7134C77.2186 62.9641 76.5383 61.0286 75.353 59.2925L80.0536 36.8907C81.2976 37.8241 83.1615 38.8366 85.3995 38.8366C85.6005 38.8366 85.8052 38.8284 86.0122 38.8113C89.1819 38.5485 92.095 36.2877 94.6702 32.091L95.4394 30.838L94.2354 30.1144ZM47.9589 36.0715C45.8987 35.8928 43.9079 34.4637 42.0279 31.8194C44.9049 30.3522 47.3981 30.0221 49.4535 30.8399C51.3234 31.5838 52.4337 33.1535 52.9661 34.1177C52.0394 34.9421 50.178 36.2654 47.9589 36.0715ZM66.9024 68.1125C59.0713 68.1125 59.0713 65.5545 59.0713 64.7139C59.0713 61.7097 62.5796 57.1058 66.9024 57.1058C71.2252 57.1058 74.7336 61.7097 74.7336 64.7139C74.7336 65.5545 74.7336 68.1125 66.9024 68.1125ZM85.8462 36.0715C83.6261 36.2651 81.7659 34.9421 80.8387 34.1177C81.3712 33.1535 82.4815 31.5838 84.3513 30.8399C86.407 30.0221 88.9002 30.3522 91.777 31.8194C89.8972 34.4637 87.9061 35.8925 85.8462 36.0715ZM77.8561 34.727L77.871 34.685C76.7641 33.3746 73.3753 30.1369 66.9019 30.1363C64.9136 30.1363 63.2184 30.4431 61.7886 30.9047L55.8683 34.8231L58.9426 49.4724L60.5145 56.966C62.2907 55.4056 64.5228 54.3596 66.9022 54.3596C69.1643 54.3596 71.3949 55.2744 73.2926 56.9547L77.9366 34.8234L77.8561 34.727Z" fill="url(#paint0_linear_1621_7420)"/>
<path d="M77.871 34.685L77.8561 34.727L77.9366 34.8234L73.2926 56.9547C71.3949 55.2744 69.1643 54.3596 66.9022 54.3596C64.5228 54.3596 62.2907 55.4056 60.5145 56.966L58.9426 49.4724L55.8683 34.8231L61.7886 30.9047C63.2184 30.4431 64.9136 30.1363 66.9019 30.1363C73.3753 30.1369 76.7641 33.3746 77.871 34.685Z" fill="url(#paint1_linear_1621_7420)"/>
<path d="M62.0457 61.0459C61.5056 61.6429 61.5056 62.6106 62.0457 63.2076C62.5859 63.8046 63.4616 63.8046 64.0015 63.2076C64.5416 62.6106 64.1903 62.0312 63.6502 61.4342C63.1101 60.8372 62.5859 60.4489 62.0457 61.0459Z" fill="url(#paint2_linear_1621_7420)"/>
<path d="M69.8456 61.4342C69.3055 62.0312 68.9541 62.6106 69.4943 63.2076C70.0344 63.8046 70.9099 63.8046 71.4501 63.2076C71.9902 62.6106 71.9902 61.6429 71.4501 61.0459C70.9102 60.4489 70.3857 60.8372 69.8456 61.4342Z" fill="url(#paint3_linear_1621_7420)"/>
<path d="M4.70022 133.191H0V107.472H4.70022V118.124H15.3736V107.472H20.0739V133.191H15.3736V122.472H4.70022V133.191Z" fill="#20A577"/>
<path d="M32.9 133.562C31.0504 133.562 29.4184 133.146 28.004 132.315C26.5895 131.483 25.4906 130.337 24.7073 128.876C23.9457 127.393 23.5649 125.719 23.5649 123.854C23.5649 122.124 23.9021 120.506 24.5767 119C25.273 117.472 26.3066 116.236 27.6775 115.292C29.0702 114.348 30.7675 113.876 32.7695 113.876C34.4232 113.876 35.9465 114.236 37.3391 114.955C38.7318 115.652 39.8524 116.742 40.7011 118.225C41.5497 119.685 41.974 121.506 41.974 123.685V124.663H30.3541C30.2235 124.663 29.8645 124.663 29.2769 124.663C28.6894 124.663 28.2215 124.629 27.8734 124.562L27.7428 125.067C27.9169 125.112 28.0475 125.202 28.1345 125.337C28.2433 125.472 28.3304 125.663 28.3956 125.91C28.5697 126.382 28.7112 126.708 28.82 126.888C29.2552 127.764 29.8318 128.449 30.5499 128.944C31.2898 129.416 32.1275 129.652 33.0632 129.652C34.0642 129.652 34.9237 129.393 35.6418 128.876C36.3599 128.337 36.8713 127.652 37.1759 126.82H41.6803C41.0928 128.82 40.0591 130.449 38.5794 131.708C37.0997 132.944 35.2066 133.562 32.9 133.562ZM28.2651 121.764C28.5915 121.562 28.8852 121.427 29.1464 121.36C29.4075 121.292 29.7013 121.258 30.0277 121.258H35.7071C36.0553 121.258 36.3599 121.292 36.621 121.36C36.9039 121.427 37.2194 121.562 37.5676 121.764L37.8287 121.292C37.6764 121.202 37.5676 121.124 37.5023 121.056C37.437 120.966 37.3826 120.876 37.3391 120.787C37.3174 120.697 37.3065 120.64 37.3065 120.618C37.2194 120.236 37.0453 119.865 36.7842 119.506C36.3708 118.854 35.8268 118.36 35.1522 118.022C34.4776 117.663 33.7269 117.483 32.9 117.483C32.0731 117.483 31.3224 117.652 30.6478 117.989C29.995 118.326 29.4619 118.831 29.0484 119.506C28.7656 119.865 28.5806 120.236 28.4936 120.618C28.4936 120.64 28.4718 120.708 28.4283 120.82C28.3848 120.91 28.3304 121 28.2651 121.09C28.1998 121.157 28.1019 121.225 27.9713 121.292L28.2651 121.764Z" fill="#20A577"/>
<path d="M45.4877 140V136.157H47.4788C48.1316 136.157 48.6212 136.056 48.9476 135.854C49.2958 135.674 49.5896 135.258 49.8289 134.607L50.3185 133.258L43.562 114.281H48.3275L51.8853 125.775C52.1681 126.629 52.3205 127.416 52.3422 128.135H52.7666C52.7883 127.551 52.9189 126.764 53.1582 125.775L56.4549 114.281H61.1878L54.0722 135.416C53.5064 137.101 52.8101 138.281 51.9832 138.955C51.1781 139.652 50.0248 140 48.5233 140H45.4877Z" fill="#20A577"/>
<path d="M75.0087 133.663C72.354 133.663 70.1235 133.067 68.3174 131.876C66.5113 130.663 65.1622 129.045 64.27 127.022C63.3778 125 62.9317 122.764 62.9317 120.315C62.9317 117.865 63.3778 115.64 64.27 113.64C65.1622 111.618 66.5113 110.011 68.3174 108.82C70.1235 107.607 72.354 107 75.0087 107C78.0116 107 80.4379 107.775 82.2875 109.326C84.1371 110.876 85.236 112.944 85.5842 115.528H80.4597C80.2421 114.18 79.6328 113.146 78.6318 112.427C77.6308 111.708 76.3796 111.348 74.8781 111.348C72.6368 111.348 70.896 112.169 69.6557 113.809C68.4371 115.427 67.8278 117.596 67.8278 120.315C67.8278 123.056 68.4371 125.247 69.6557 126.888C70.896 128.506 72.6368 129.315 74.8781 129.315C76.4014 129.315 77.6526 128.944 78.6318 128.202C79.611 127.438 80.2203 126.315 80.4597 124.831H85.5842C85.236 127.551 84.1371 129.708 82.2875 131.303C80.4596 132.876 78.0334 133.663 75.0087 133.663Z" fill="#20A577"/>
<path d="M97.2891 133.562C95.4612 133.562 93.8401 133.146 92.4257 132.315C91.0113 131.483 89.9015 130.315 89.0964 128.809C88.313 127.303 87.9213 125.573 87.9213 123.618C87.9213 121.73 88.313 120.045 89.0964 118.562C89.9015 117.079 91.0113 115.933 92.4257 115.124C93.8401 114.292 95.4612 113.876 97.2891 113.876C99.117 113.876 100.738 114.292 102.153 115.124C103.589 115.955 104.698 117.112 105.482 118.596C106.287 120.056 106.69 121.73 106.69 123.618C106.69 125.573 106.298 127.303 105.514 128.809C104.731 130.315 103.621 131.483 102.185 132.315C100.771 133.146 99.1387 133.562 97.2891 133.562ZM97.2891 129.652C98.7253 129.652 99.8895 129.09 100.782 127.966C101.674 126.843 102.12 125.393 102.12 123.618C102.12 121.91 101.674 120.517 100.782 119.438C99.8895 118.337 98.7253 117.787 97.2891 117.787C96.3534 117.787 95.5156 118.034 94.7758 118.528C94.0359 119.022 93.4593 119.719 93.0458 120.618C92.6324 121.494 92.4257 122.494 92.4257 123.618C92.4257 125.416 92.8718 126.876 93.7639 128C94.6779 129.101 95.8529 129.652 97.2891 129.652Z" fill="#20A577"/>
<path d="M114.045 133.191L108.463 114.281H113.164L115.807 124.528C116.003 125.27 116.101 126.169 116.101 127.225H116.526C116.547 126.596 116.58 126.09 116.623 125.708C116.667 125.326 116.743 124.933 116.852 124.528L119.79 114.281H123.608L126.546 124.528C126.742 125.225 126.862 126.124 126.905 127.225H127.297C127.34 126.146 127.449 125.247 127.623 124.528L130.332 114.281H135L129.321 133.191H125.175L122.368 122.91C122.129 121.876 121.976 120.91 121.911 120.011H121.52C121.476 120.596 121.422 121.079 121.356 121.461C121.313 121.843 121.226 122.326 121.095 122.91L118.223 133.191H114.045Z" fill="#20A577"/>
<defs>
<linearGradient id="paint0_linear_1621_7420" x1="72.6669" y1="67.2235" x2="62.6384" y2="14.9621" gradientUnits="userSpaceOnUse">
<stop stop-color="#25BB7F"/>
<stop offset="1" stop-color="#C4F4D6"/>
</linearGradient>
<linearGradient id="paint1_linear_1621_7420" x1="72.6669" y1="67.2235" x2="62.6384" y2="14.9621" gradientUnits="userSpaceOnUse">
<stop stop-color="#25BB7F"/>
<stop offset="1" stop-color="#C4F4D6"/>
</linearGradient>
<linearGradient id="paint2_linear_1621_7420" x1="63.9765" y1="68.8865" x2="53.948" y2="16.6253" gradientUnits="userSpaceOnUse">
<stop stop-color="#25BB7F"/>
<stop offset="1" stop-color="#64CFAA"/>
</linearGradient>
<linearGradient id="paint3_linear_1621_7420" x1="71.3493" y1="67.4723" x2="61.3208" y2="15.2109" gradientUnits="userSpaceOnUse">
<stop stop-color="#25BB7F"/>
<stop offset="1" stop-color="#64CFAA"/>
</linearGradient>
</defs>
</svg>
